<svg xmlns="http://www.w3.org/2000/svg" width="16" height="16" viewBox="0 0 16 16" fill="none"><path d="M14 3H2C1.44772 3 1 3.44772 1 4V12C1 12.5523 1.44772 13 2 13H14C14.5523 13 15 12.5523 15 12V4C15 3.44772 14.5523 3 14 3Z" stroke="currentColor" stroke-linecap="round" stroke-linejoin="round"/><path d="M1 6H15" stroke="currentColor" stroke-linecap="round" stroke-linejoin="round"/><path d="M4.5 4.5C4.77614 4.5 5 4.27614 5 4C5 3.72386 4.77614 3.5 4.5 3.5C4.22386 3.5 4 3.72386 4 4C4 4.27614 4.22386 4.5 4.5 4.5Z" fill="currentColor"/><path d="M7 4.5C7.27614 4.5 7.5 4.27614 7.5 4C7.5 3.72386 7.27614 3.5 7 3.5C6.72386 3.5 6.5 3.72386 6.5 4C6.5 4.27614 6.72386 4.5 7 4.5Z" fill="currentColor"/></svg>
